<svg width="21" height="21" viewBox="0 0 21 21" fill="none" xmlns="http://www.w3.org/2000/svg">
<path fill-rule="evenodd" clip-rule="evenodd" d="M13.2805 1.81693C11.8588 0.173981 9.31069 0.173981 7.88895 1.81693L7.25597 2.54841L6.29115 2.47875C4.12412 2.3223 2.3223 4.12412 2.47875 6.29114L2.54841 7.25597L1.81693 7.88895C0.173981 9.31069 0.173981 11.8588 1.81693 13.2805L2.54841 13.9135L2.47875 14.8783C2.3223 17.0453 4.12412 18.8471 6.29115 18.6906L7.25597 18.621L7.88895 19.3525C9.31069 20.9955 11.8588 20.9955 13.2805 19.3525L13.9135 18.621L14.8783 18.6906C17.0453 18.8471 18.8471 17.0453 18.6906 14.8783L18.621 13.9135L19.3525 13.2805C20.9955 11.8588 20.9955 9.31069 19.3525 7.88895L18.621 7.25597L18.6906 6.29115C18.8471 4.12412 17.0453 2.3223 14.8783 2.47875L13.9135 2.54841L13.2805 1.81693ZM14.9769 9.06114C15.4481 8.60436 15.4596 7.852 15.0027 7.38085C14.5459 6.90971 13.7936 6.89814 13.3224 7.35501L9.24783 11.3061L7.84703 9.94762C7.37587 9.49084 6.62357 9.50236 6.1667 9.97353C5.70983 10.4447 5.7214 11.197 6.19254 11.6538L8.42065 13.8144C8.88159 14.2614 9.61418 14.2614 10.0751 13.8144L14.9769 9.06114Z" fill="url(#paint0_linear_5_7)"/>
<defs>
<linearGradient id="paint0_linear_5_7" x1="0.58472" y1="10.5847" x2="20.5847" y2="10.5847" gradientUnits="userSpaceOnUse">
<stop stop-color="#D82E8A"/>
<stop offset="1" stop-color="#EA706C"/>
</linearGradient>
</defs>
</svg>
