<svg width="24" height="24" viewBox="0 0 24 24" fill="none" xmlns="http://www.w3.org/2000/svg">
<g filter="url(#filter0_d_1_16)">
<path d="M7.10397 13.7639C8.79596 13.7639 10.1519 15.1331 10.1519 16.8371V20.928C10.1519 22.62 8.79596 24 7.10397 24H3.04798C1.36799 24 0 22.62 0 20.928V16.8371C0 15.1331 1.36799 13.7639 3.04798 13.7639H7.10397ZM20.952 13.7639C22.632 13.7639 24 15.1331 24 16.8371V20.928C24 22.62 22.632 24 20.952 24H16.896C15.204 24 13.8481 22.62 13.8481 20.928V16.8371C13.8481 15.1331 15.204 13.7639 16.896 13.7639H20.952ZM20.952 0C22.632 0 24 1.38005 24 3.07328V7.16413C24 8.86816 22.632 10.2362 20.952 10.2362H16.896C15.204 10.2362 13.8481 8.86816 13.8481 7.16413V3.07328C13.8481 1.38005 15.204 0 16.896 0H20.952Z" fill="url(#paint0_linear_1_16)"/>
</g>
<g filter="url(#filter1_d_1_16)">
<path d="M10.1519 3.07327C10.1519 1.38005 8.79596 3.05176e-05 7.10397 3.05176e-05H3.04798C1.36799 3.05176e-05 0 1.38005 0 3.07327V7.16413C0 8.86815 1.36799 10.2362 3.04798 10.2362H7.10397C8.79596 10.2362 10.1519 8.86815 10.1519 7.16413V3.07327Z" fill="url(#paint1_linear_1_16)"/>
</g>
<defs>
<filter id="filter0_d_1_16" x="-11" y="-9" width="52" height="52" filterUnits="userSpaceOnUse" color-interpolation-filters="sRGB">
<feFlood flood-opacity="0" result="BackgroundImageFix"/>
<feColorMatrix in="SourceAlpha" type="matrix" values="0 0 0 0 0 0 0 0 0 0 0 0 0 0 0 0 0 0 127 0" result="hardAlpha"/>
<feOffset dx="3" dy="5"/>
<feGaussianBlur stdDeviation="7"/>
<feComposite in2="hardAlpha" operator="out"/>
<feColorMatrix type="matrix" values="0 0 0 0 0.333333 0 0 0 0 0.247059 0 0 0 0 0.960784 0 0 0 0.54 0"/>
<feBlend mode="normal" in2="BackgroundImageFix" result="effect1_dropShadow_1_16"/>
<feBlend mode="normal" in="SourceGraphic" in2="effect1_dropShadow_1_16" result="shape"/>
</filter>
<filter id="filter1_d_1_16" x="-11" y="-8.99997" width="38.152" height="38.2361" filterUnits="userSpaceOnUse" color-interpolation-filters="sRGB">
<feFlood flood-opacity="0" result="BackgroundImageFix"/>
<feColorMatrix in="SourceAlpha" type="matrix" values="0 0 0 0 0 0 0 0 0 0 0 0 0 0 0 0 0 0 127 0" result="hardAlpha"/>
<feOffset dx="3" dy="5"/>
<feGaussianBlur stdDeviation="7"/>
<feComposite in2="hardAlpha" operator="out"/>
<feColorMatrix type="matrix" values="0 0 0 0 0.333333 0 0 0 0 0.247059 0 0 0 0 0.960784 0 0 0 0.54 0"/>
<feBlend mode="normal" in2="BackgroundImageFix" result="effect1_dropShadow_1_16"/>
<feBlend mode="normal" in="SourceGraphic" in2="effect1_dropShadow_1_16" result="shape"/>
</filter>
<linearGradient id="paint0_linear_1_16" x1="11.9999" y1="0" x2="11.9999" y2="24" gradientUnits="userSpaceOnUse">
<stop stop-color="#3461FF"/>
<stop offset="1" stop-color="#8454EB"/>
</linearGradient>
<linearGradient id="paint1_linear_1_16" x1="0" y1="5.1181" x2="10.1519" y2="5.1181" gradientUnits="userSpaceOnUse">
<stop stop-color="#70F1A7"/>
<stop offset="1" stop-color="#62D6F1"/>
</linearGradient>
</defs>
</svg>
