<svg width="31" height="45" viewBox="0 0 31 45" fill="none" xmlns="http://www.w3.org/2000/svg">
<path d="M16.0504 0.300728C14.4203 0.301192 12.8571 0.951151 11.7044 2.10769C10.5518 3.2643 9.90403 4.83269 9.90362 6.46832V9.27026H7.11114C6.3033 9.26957 5.50334 9.42865 4.75684 9.73861C4.01047 10.0484 3.33224 10.503 2.76104 11.0762C2.18984 11.6494 1.73696 12.3298 1.4281 13.0787C1.11925 13.8278 0.960671 14.6306 0.961487 15.441V21.6066H9.90213V27.2102H7.10978C5.47914 27.2101 3.91527 27.8597 2.76199 29.0163C1.60871 30.1729 0.960535 31.7417 0.959991 33.3777V44.0333H7.11263C7.91966 44.0331 8.71865 43.8732 9.46421 43.5627C10.2096 43.2526 10.8868 42.798 11.4572 42.2251C12.0275 41.6522 12.4797 40.9721 12.7882 40.2238C13.0965 39.4752 13.2549 38.6735 13.2544 37.8638H13.2623V33.7929L13.2458 33.7951V7.86027L13.2594 7.86355V6.46941C13.2609 5.72608 13.5554 5.0135 14.0784 4.48706C14.6016 3.96076 15.311 3.66351 16.0519 3.66009H26.7306V6.46941C26.7285 7.21247 26.4329 7.92436 25.9091 8.44944C25.385 8.97437 24.6753 9.26998 23.9347 9.27121H14.5233V12.6342H23.9332C25.5633 12.6343 27.1267 11.9847 28.2794 10.8283C29.4323 9.67178 30.0799 8.10326 30.08 6.46763V0.300003L16.0504 0.300728ZM9.90362 18.2432H4.31661V15.4414C4.31783 14.6972 4.61254 13.9838 5.13655 13.4569C5.66042 12.9301 6.37089 12.6327 7.11263 12.6299H9.90498L9.90362 18.2432ZM9.90362 37.8669C9.9024 38.6097 9.60782 39.3222 9.0845 39.8476C8.56117 40.3734 7.85166 40.6697 7.11114 40.6715H4.31511V33.3796C4.31579 32.6362 4.61077 31.9234 5.13505 31.398C5.65933 30.8725 6.37021 30.5775 7.11114 30.5778H9.90362V37.8669ZM14.5233 21.6062H21.5758V24.4109C21.5731 25.1538 21.2774 25.8654 20.7536 26.3904C20.2298 26.9153 19.5202 27.2109 18.7798 27.2127H14.5233V30.5778H18.7813C19.5886 30.5782 20.3881 30.419 21.1341 30.1092C21.8801 29.7994 22.5579 29.3451 23.1287 28.7723C23.6996 28.1995 24.1523 27.5194 24.4611 26.771C24.7698 26.0224 24.9285 25.2202 24.9281 24.4102H24.9309V18.2426H14.5233V21.6062Z" fill="url(#paint0_linear_1_7)"/>
<defs>
<linearGradient id="paint0_linear_1_7" x1="15.52" y1="0.300003" x2="15.52" y2="44.0333" gradientUnits="userSpaceOnUse">
<stop stop-color="#3461FF"/>
<stop offset="1" stop-color="#8454EB"/>
</linearGradient>
</defs>
</svg>
