<svg width="24" height="24" viewBox="0 0 24 24" fill="none" xmlns="http://www.w3.org/2000/svg">
<g id="Icon - Heart">
<g id="Vector">
<path fill-rule="evenodd" clip-rule="evenodd" d="M17.1652 4.75129C15.6235 4.25681 13.7985 4.65593 12.8862 6.03972C12.7055 6.31382 12.4017 6.48175 12.0735 6.48904C11.7453 6.49633 11.4344 6.34205 11.2417 6.07625C10.2357 4.68864 8.42965 4.26651 6.92839 4.75096C4.11598 5.65618 2.90612 9.117 3.87453 12.141C4.65319 14.5639 6.3602 16.4232 8.1096 17.6885C8.98045 18.3184 9.84309 18.7871 10.5705 19.0949C11.3309 19.4167 11.8477 19.5223 12.0513 19.5223C12.2521 19.5223 12.7704 19.4148 13.5369 19.0875C14.2691 18.7748 15.1373 18.3001 16.0119 17.666C17.7706 16.3908 19.4729 14.5326 20.2233 12.1463L20.2249 12.1415C21.192 9.11924 19.978 5.65716 17.1652 4.75129ZM12.0257 3.98247C13.6303 2.49803 15.9593 2.2639 17.7768 2.84711C21.9949 4.20514 23.306 9.07137 22.1305 12.7487C21.2106 15.6712 19.165 17.8502 17.1859 19.2851C16.1914 20.0062 15.193 20.5549 14.3224 20.9268C13.4859 21.284 12.665 21.5223 12.0513 21.5223C11.4408 21.5223 10.6253 21.2899 9.79103 20.9368C8.92385 20.5698 7.92962 20.0267 6.93747 19.3091C4.961 17.8795 2.91764 15.7009 1.97022 12.7522C0.792838 9.0763 2.09334 4.20638 6.31458 2.84748M12.0257 3.98247C10.4135 2.56263 8.1652 2.25056 6.31458 2.84748L12.0257 3.98247Z" fill="url(#paint0_linear_7998_126)" style=""/>
<path fill-rule="evenodd" clip-rule="evenodd" d="M14.7944 7.46184C14.8508 6.91245 15.3419 6.51283 15.8913 6.56927C16.7468 6.65716 17.4899 7.05142 18.0015 7.69839C18.5067 8.33721 18.7346 9.15503 18.7056 10.0196C18.687 10.5715 18.2246 11.004 17.6726 10.9855C17.1206 10.967 16.6882 10.5045 16.7067 9.9525C16.7227 9.47605 16.5956 9.14487 16.4327 8.93893C16.2763 8.74116 16.0384 8.59491 15.6869 8.5588C15.1375 8.50236 14.7379 8.01123 14.7944 7.46184Z" fill="url(#paint1_linear_7998_126)" style=""/>
</g>
</g>
<defs>
<linearGradient id="paint0_linear_7998_126" x1="1.5564" y1="12.0373" x2="22.5419" y2="12.0373" gradientUnits="userSpaceOnUse">
<stop stop-color="#C837F6" style="stop-color:#C837F6;stop-color:color(display-p3 0.7843 0.2157 0.9647);stop-opacity:1;"/>
<stop offset="1" stop-color="#8C3AE5" style="stop-color:#8C3AE5;stop-color:color(display-p3 0.5490 0.2275 0.8980);stop-opacity:1;"/>
</linearGradient>
<linearGradient id="paint1_linear_7998_126" x1="1.5564" y1="12.0373" x2="22.5419" y2="12.0373" gradientUnits="userSpaceOnUse">
<stop stop-color="#C837F6" style="stop-color:#C837F6;stop-color:color(display-p3 0.7843 0.2157 0.9647);stop-opacity:1;"/>
<stop offset="1" stop-color="#8C3AE5" style="stop-color:#8C3AE5;stop-color:color(display-p3 0.5490 0.2275 0.8980);stop-opacity:1;"/>
</linearGradient>
</defs>
</svg>
