<svg width="112" height="87" viewBox="0 0 112 87" fill="none" xmlns="http://www.w3.org/2000/svg">
<path opacity="0.5" d="M46.4431 27.7426C46.4431 45.0508 40.7424 60.9307 29.341 75.3823C22.1313 84.1205 16.3468 87.9014 11.9874 86.7251C7.96338 85.2127 5.95136 82.9442 5.95136 79.9194C5.95136 77.0627 7.29271 74.038 9.97539 70.8452C12.4904 67.6524 14.5024 65.0478 16.0114 63.0313C17.5204 61.0148 18.7779 58.8302 19.784 56.4776C22.1313 51.7725 23.305 46.0591 23.305 39.3374C19.2809 40.5137 15.2569 40.0096 11.2329 37.825C3.85553 33.624 0.166837 28.2467 0.166838 21.6931C0.166838 15.3075 2.17885 10.0982 6.20287 6.06521C10.0592 2.20025 15.4246 0.267776 22.299 0.267776C29.1733 0.267777 34.9579 2.87241 39.6526 8.0817C44.1796 13.459 46.4431 20.0126 46.4431 27.7426ZM111.834 27.7426C111.833 45.723 106.217 61.6029 94.9829 75.3823C86.4318 85.6328 79.306 88.7416 73.6053 84.7086C72.4316 83.8684 71.8448 82.5241 71.8448 80.6756C71.8448 77.3148 73.1023 74.038 75.6173 70.8452C77.9646 67.6524 79.8928 65.0478 81.4018 63.0313C82.9108 61.0148 84.1683 58.8302 85.1743 56.4776C87.5217 51.7725 88.6954 46.0591 88.6954 39.3374C84.6713 40.5137 80.7311 40.0096 76.8748 37.825C69.6651 33.624 66.0602 28.2467 66.0602 21.6931C66.0602 15.3075 67.9884 10.0982 71.8448 6.06521C75.7011 2.20025 81.0665 0.267781 87.9409 0.267782C94.8152 0.267783 100.516 2.87242 105.043 8.08171C109.57 13.459 111.834 20.0126 111.834 27.7426Z" fill="white"/>
</svg>
