<svg width="113" height="87" viewBox="0 0 113 87" fill="none" xmlns="http://www.w3.org/2000/svg">
<path opacity="0.5" d="M66.0571 59.4597C66.0571 42.1514 71.7578 26.2715 83.1592 11.82C90.3689 3.0818 96.1535 -0.699128 100.513 0.477162C104.537 1.98954 106.549 4.25809 106.549 7.28284C106.549 10.1395 105.208 13.1643 102.525 16.3571C100.01 19.5499 97.9978 22.1545 96.4888 24.171C94.9798 26.1875 93.7223 28.372 92.7163 30.7246C90.3689 35.4298 89.1953 41.1432 89.1953 47.8648C93.2193 46.6886 97.2433 47.1927 101.267 49.3772C108.645 53.5783 112.333 58.9556 112.333 65.5092C112.333 71.8948 110.321 77.1041 106.297 81.1371C102.441 85.002 97.0757 86.9345 90.2013 86.9345C83.3269 86.9345 77.5424 84.3298 72.8477 79.1206C68.3206 73.7432 66.0571 67.1896 66.0571 59.4597ZM0.666748 59.4597C0.666748 41.4793 6.28362 25.5994 17.5173 11.82C26.0684 1.56943 33.1943 -1.53934 38.895 2.49366C40.0686 3.33387 40.6555 4.6782 40.6555 6.52665C40.6555 9.88748 39.398 13.1643 36.883 16.3571C34.5356 19.5499 32.6074 22.1545 31.0984 24.171C29.5894 26.1875 28.3319 28.372 27.3259 30.7246C24.9786 35.4298 23.8049 41.1432 23.8049 47.8648C27.8289 46.6886 31.7691 47.1927 35.6255 49.3772C42.8352 53.5783 46.44 58.9556 46.44 65.5092C46.44 71.8948 44.5118 77.1041 40.6555 81.1371C36.7991 85.002 31.4338 86.9345 24.5594 86.9345C17.685 86.9345 11.9843 84.3298 7.45729 79.1206C2.93026 73.7432 0.666748 67.1896 0.666748 59.4597Z" fill="white"/>
</svg>
