<svg width="20" height="21" viewBox="0 0 20 21" fill="none" xmlns="http://www.w3.org/2000/svg">
<path d="M9.99918 19.0833C5.87974 19.029 2.55348 15.7027 2.49918 11.5833C2.55348 7.46385 5.87974 4.13758 9.99918 4.08329C14.1186 4.13758 17.4449 7.46385 17.4992 11.5833C17.4449 15.7027 14.1186 19.029 9.99918 19.0833ZM9.99918 5.74995C6.79515 5.79213 4.20803 8.37926 4.16585 11.5833C4.20803 14.7873 6.79515 17.3744 9.99918 17.4166C13.2032 17.3744 15.7903 14.7873 15.8325 11.5833C15.7903 8.37926 13.2032 5.79213 9.99918 5.74995ZM14.1658 12.4166H9.16585V7.41662H10.8325V10.75H14.1658V12.4166ZM16.9092 6.33995L14.4017 3.83995L15.5758 2.65912L18.0842 5.15912L16.9092 6.33912V6.33995ZM3.08835 6.33995L1.90918 5.15912L4.40168 2.65912L5.58085 3.83995L3.09001 6.33995H3.08835Z" fill="#FF6916"/>
</svg>
