<svg width="22" height="22" viewBox="0 0 22 22" fill="none" xmlns="http://www.w3.org/2000/svg">
<path d="M16.7552 19.5154H4.7775C3.83249 19.5154 3.06641 18.7493 3.06641 17.8043V5.82667C3.06641 4.88166 3.83249 4.11557 4.7775 4.11557H6.48859V2.40448H8.19969V4.11557H13.333V2.40448H15.0441V4.11557H16.7552C17.7002 4.11557 18.4663 4.88166 18.4663 5.82667V17.8043C18.4663 18.7493 17.7002 19.5154 16.7552 19.5154ZM4.7775 9.24885V17.8043H16.7552V9.24885H4.7775ZM4.7775 5.82667V7.53776H16.7552V5.82667H4.7775ZM15.0441 16.0932H13.333V14.3821H15.0441V16.0932ZM11.6219 16.0932H9.91078V14.3821H11.6219V16.0932ZM8.19969 16.0932H6.48859V14.3821H8.19969V16.0932ZM15.0441 12.671H13.333V10.9599H15.0441V12.671ZM11.6219 12.671H9.91078V10.9599H11.6219V12.671ZM8.19969 12.671H6.48859V10.9599H8.19969V12.671Z" fill="#B7B7B7"/>
</svg>
