<svg width="20" height="21" viewBox="0 0 20 21" fill="none" xmlns="http://www.w3.org/2000/svg">
<path fill-rule="evenodd" clip-rule="evenodd" d="M10.0003 3.26509C6.23475 3.26509 3.18214 6.31769 3.18214 10.0833C3.18214 13.8489 6.23475 16.9015 10.0003 16.9015C13.7659 16.9015 16.8185 13.8489 16.8185 10.0833C16.8185 6.31769 13.7659 3.26509 10.0003 3.26509ZM1.66699 10.0833C1.66699 5.4809 5.39795 1.74994 10.0003 1.74994C14.6027 1.74994 18.3337 5.4809 18.3337 10.0833C18.3337 14.6856 14.6027 18.4166 10.0003 18.4166C5.39795 18.4166 1.66699 14.6856 1.66699 10.0833Z" fill="#FF6916"/>
<path fill-rule="evenodd" clip-rule="evenodd" d="M1.66699 10.0833C1.66699 9.62303 2.00617 9.24994 2.42457 9.24994H17.5761C17.9945 9.24994 18.3337 9.62303 18.3337 10.0833C18.3337 10.5435 17.9945 10.9166 17.5761 10.9166H2.42457C2.00617 10.9166 1.66699 10.5435 1.66699 10.0833Z" fill="#FF6916"/>
<path fill-rule="evenodd" clip-rule="evenodd" d="M7.49987 9.9581C7.55698 12.3225 8.43822 14.5989 9.99967 16.4552C11.5611 14.5989 12.4424 12.3225 12.4995 9.9581C12.4424 7.59368 11.5611 5.31733 9.99967 3.46103C8.43822 5.31733 7.55698 7.59368 7.49987 9.9581ZM9.99967 2.26854L9.38439 1.74994C7.16375 3.99324 5.90177 6.90446 5.83319 9.94208C5.83295 9.95275 5.83295 9.96344 5.83319 9.97411C5.90177 13.0117 7.16375 15.923 9.38439 18.1663C9.54227 18.3257 9.76557 18.4166 9.99967 18.4166C10.2338 18.4166 10.4571 18.3257 10.615 18.1663C12.8356 15.923 14.0976 13.0117 14.1662 9.97411C14.1664 9.96344 14.1664 9.95275 14.1662 9.94208C14.0976 6.90446 12.8356 3.99324 10.615 1.74994L9.99967 2.26854Z" fill="#FF6916"/>
</svg>
