<svg width="21" height="21" viewBox="0 0 21 21" fill="none" xmlns="http://www.w3.org/2000/svg">
<path fill-rule="evenodd" clip-rule="evenodd" d="M10.5 2.77773C8.9087 2.77773 7.38258 3.42158 6.25736 4.56764C5.13214 5.71371 4.5 7.26811 4.5 8.88889C4.5 11.2555 6.0118 13.5519 7.66946 15.3341C8.48296 16.2087 9.299 16.9247 9.91251 17.4222C10.1408 17.6074 10.3403 17.7617 10.5 17.8819C10.6597 17.7617 10.8592 17.6074 11.0875 17.4222C11.701 16.9247 12.517 16.2087 13.3305 15.3341C14.9882 13.5519 16.5 11.2555 16.5 8.88889C16.5 7.26811 15.8679 5.71371 14.7426 4.56764C13.6174 3.42158 12.0913 2.77773 10.5 2.77773ZM10.5 18.8195C10.084 19.4551 10.0838 19.455 10.0836 19.4548L10.0814 19.4534L10.0764 19.45L10.0592 19.4381C10.0446 19.428 10.0238 19.4135 9.99717 19.3947C9.9439 19.3571 9.86735 19.3024 9.77084 19.2314C9.57791 19.0895 9.30477 18.8823 8.97812 18.6174C8.326 18.0885 7.45454 17.3244 6.58054 16.3848C4.8632 14.5385 3 11.8696 3 8.88889C3 6.86291 3.79018 4.91991 5.1967 3.48733C6.60322 2.05475 8.51088 1.24994 10.5 1.24994C12.4891 1.24994 14.3968 2.05475 15.8033 3.48733C17.2098 4.91991 18 6.86291 18 8.88889C18 11.8696 16.1368 14.5385 14.4195 16.3848C13.5455 17.3244 12.674 18.0885 12.0219 18.6174C11.6952 18.8823 11.4221 19.0895 11.2292 19.2314C11.1327 19.3024 11.0561 19.3571 11.0028 19.3947C10.9762 19.4135 10.9554 19.428 10.9408 19.4381L10.9236 19.45L10.9186 19.4534L10.917 19.4545C10.9168 19.4546 10.916 19.4551 10.5 18.8195ZM10.5 18.8195L10.916 19.4551C10.6641 19.6262 10.3355 19.6259 10.0836 19.4548L10.5 18.8195Z" fill="#FF6916"/>
<path fill-rule="evenodd" clip-rule="evenodd" d="M10.5003 7.08329C9.57985 7.08329 8.83366 7.82948 8.83366 8.74996C8.83366 9.67043 9.57985 10.4166 10.5003 10.4166C11.4208 10.4166 12.167 9.67043 12.167 8.74996C12.167 7.82948 11.4208 7.08329 10.5003 7.08329ZM7.16699 8.74996C7.16699 6.90901 8.65938 5.41663 10.5003 5.41663C12.3413 5.41663 13.8337 6.90901 13.8337 8.74996C13.8337 10.5909 12.3413 12.0833 10.5003 12.0833C8.65938 12.0833 7.16699 10.5909 7.16699 8.74996Z" fill="#FF6916"/>
</svg>
