<svg width="20" height="21" viewBox="0 0 20 21" fill="none" xmlns="http://www.w3.org/2000/svg">
<path d="M7.28512 7.98485C6.39084 8.74472 6.06313 10.1305 6.83531 11.2423C7.5579 12.2826 8.46813 13.1927 9.50825 13.9149C10.62 14.687 12.0058 14.3592 12.7656 13.4649L12.774 13.4688C13.7445 13.9183 14.7753 14.2265 15.8333 14.3835V16.5833L15.8324 16.5833L15.8301 16.5833C9.18459 16.5927 4.15956 11.5092 4.16668 4.9196V4.91661H6.36614L6.36629 4.91758C6.52333 5.97548 6.83134 7.00539 7.28095 7.97584L7.28512 7.98485ZM15.8324 18.2499H16.6667C17.1269 18.2499 17.5 17.8768 17.5 17.4166V13.6647C17.5 13.2517 17.1975 12.901 16.789 12.8404L16.0772 12.7348C15.1769 12.6012 14.3004 12.339 13.4746 11.9565L12.8472 11.6659C12.4836 11.4974 12.0517 11.6116 11.8188 11.9377L11.5348 12.3353C11.2859 12.6838 10.8106 12.7902 10.4589 12.546C9.58196 11.937 8.81339 11.1686 8.20419 10.2915C7.95984 9.93972 8.06629 9.46442 8.41486 9.21549L8.81231 8.93166C9.13841 8.69878 9.25259 8.26678 9.08414 7.90319L8.7932 7.27521C8.41062 6.44944 8.14852 5.57306 8.01488 4.67285L7.9092 3.9609C7.84856 3.55241 7.49787 3.24994 7.0849 3.24994H3.33334C2.8731 3.24994 2.50001 3.62303 2.50001 4.08327V4.9178C2.49191 12.4232 8.25853 18.2607 15.8324 18.2499Z" fill="#FF6916"/>
</svg>
