<svg width="407" height="399" viewBox="0 0 407 399" fill="none" xmlns="http://www.w3.org/2000/svg">
<path fill-rule="evenodd" clip-rule="evenodd" d="M223.561 4.13057C267.967 -5.85553 318.507 5.84416 353.022 35.4769C386.626 64.3276 392.055 112.563 400.465 156.012C407.877 194.309 411.134 233.259 398.443 270.15C385.906 306.597 361.419 337.319 330.27 360.07C299.042 382.879 262.165 400.46 223.561 397.883C186.175 395.388 159.761 364.158 126.735 346.487C86.4234 324.918 28.9943 324.085 8.93173 283.046C-11.1705 241.926 7.16556 189.967 31.1595 150.983C52.4561 116.382 98.1943 110.18 130.508 85.5163C164.089 59.8851 182.326 13.4035 223.561 4.13057Z" fill="#FF9F6A"/>
</svg>
